OpenSim_Sub05_CSStiffKnee_LCS.mot
version=1
nRows=25
nColumns=11
inDegrees=no
endheader
time	Bot_Shank	2nd_Bot_Shank	2nd_Top_Shank	Top_Shank	Bot_Thigh	Med_Thigh	Top_Thigh	BNOx	BNOy	BNOZ
28.12000000	11333.36772333	11504.03383521	12046.87587752	11546.82664658	12074.35934530	12048.39264679	11768.87794052	223.69637503	-79.21349280	125.66128914
28.13000000	11338.55537571	11507.85056687	12047.73581887	11553.12645113	12066.15351728	12046.53218431	11785.59273577	225.15731945	-77.96744633	111.57631580
28.14000000	11343.14502769	11511.68756612	12048.62940310	11559.32695839	12059.60297482	12044.83556374	11799.02071603	226.42796646	-76.86774277	100.49486286
28.15000000	11347.09668345	11515.47077642	12049.52431978	11565.30387754	12054.77414207	12043.37616024	11809.11837842	227.49788045	-75.93313459	92.77838838
28.16000000	11350.42966468	11519.07083136	12050.35342010	11570.88185611	12051.51420521	12042.17683108	11816.44655542	228.37622301	-75.15734481	88.02637075
28.17000000	11353.16405975	11522.35764969	12051.04910496	11575.88488167	12049.66751677	12041.25978063	11821.57389046	229.07240905	-74.53377295	85.82843994
28.18000000	11355.31995701	11525.20115014	12051.54377525	11580.13694179	12049.07842929	12040.64721323	11825.06902695	229.59585348	-74.05581852	85.77422587
28.19000000	11356.91744484	11527.47125144	12051.76983187	11583.46202406	12049.59129530	12040.36133323	11827.50060834	229.95597117	-73.71688104	87.45335849
28.20000000	11357.97661159	11529.03787233	12051.65967573	11585.68411604	12051.05046736	12040.42434498	11829.43727803	230.16217704	-73.51036004	90.45546775
28.21000000	11358.51754563	11529.77093154	12051.14570771	11586.62720531	12053.30029798	12040.85845283	11831.44767947	230.22388599	-73.42965502	94.37018358
28.22000000	11358.56033533	11529.54034782	12050.16032873	11586.11527944	12056.18513973	12041.68586113	11834.10045608	230.15051290	-73.46816551	98.78713593
28.23000000	11358.12506903	11528.21603989	12048.63593968	11583.97232601	12059.54934512	12042.92877422	11837.96425128	229.95147269	-73.61929103	103.29595474
28.24000000	11357.23183512	11525.66792649	12046.50494147	11580.02233258	12063.23726672	12044.60939647	11843.60770849	229.63618025	-73.87643109	107.48626995
28.25000000	11355.90151288	11521.80899756	12043.72425497	11574.14138914	12067.14952971	12046.73618366	11851.44853086	229.21467728	-74.23196785	110.99269775
28.26000000	11354.16082706	11516.87056620	12040.43201914	11566.59065498	12071.60264959	12049.21598122	11860.78887843	228.70163802	-74.67076465	113.78233075
28.27000000	11352.03912238	11511.22661886	12036.84759541	11557.80387863	12077.09954506	12051.91009246	11870.43092154	228.11381299	-75.17431483	115.97127848
28.28000000	11349.56575589	11505.25181499	12033.19072832	11548.21562271	12084.14401410	12054.67960591	11879.17447206	227.46796254	-75.72409585	117.67635338
28.29000000	11346.77008466	11499.32081406	12029.68116242	11538.26044983	12093.23985467	12057.38561007	11885.81934189	226.78084698	-76.30158515	119.01436791
28.30000000	11343.68146577	11493.80827549	12026.53864225	11528.37292260	12104.89086474	12059.88919346	11889.16534292	226.06922664	-76.88826019	120.10213450
28.31000000	11340.32925626	11489.08885876	12023.98291237	11518.98760365	12119.60084230	12062.05144460	11888.01228704	225.34986186	-77.46559844	121.05646560
28.32000000	11336.74281321	11485.53722331	12022.23371731	11510.53905559	12137.87358532	12063.73345198	11881.15998614	224.63951296	-78.01507733	121.99417366
28.33000000	11332.94923001	11483.46551673	12021.47530702	11503.41051330	12160.06118309	12064.81270814	11867.64017823	223.95319607	-78.51988985	123.04041379
28.34000000	11328.95887007	11482.72388502	12021.62960408	11497.60586751	12185.39450300	12065.28794140	11848.19868038	223.29303649	-78.97590784	124.38199874
28.35000000	11324.77459837	11482.95540365	12022.50095518	11492.95898583	12212.60187745	12065.21221837	11824.34956494	222.65538186	-79.38468579	126.23337636
28.36000000	11320.39924451	11483.80217137	12023.89315239	11489.30293383	12240.40926840	12064.63886196	11797.61052813	222.03655255	-79.74780503	128.80912488
